<?xml version="1.0" encoding="UTF-8" standalone="no"?>
<svg
   version="1.1"
   width="200mm"
   height="57mm"
   viewBox="0 0 100 28.5"
   id="svg164"
   sodipodi:docname="Linear-Regulator.svg"
   inkscape:version="1.4.3 (0d15f75, 2025-12-25)"
   xmlns:inkscape="http://www.inkscape.org/namespaces/inkscape"
   xmlns:sodipodi="http://sodipodi.sourceforge.net/DTD/sodipodi-0.dtd"
   xmlns="http://www.w3.org/2000/svg"
   xmlns:svg="http://www.w3.org/2000/svg"
   xmlns:rdf="http://www.w3.org/1999/02/22-rdf-syntax-ns#"
   xmlns:cc="http://creativecommons.org/ns#"
   xmlns:dc="http://purl.org/dc/elements/1.1/">
  <defs
     id="defs164" />
  <sodipodi:namedview
     id="namedview164"
     pagecolor="#ffffff"
     bordercolor="#000000"
     borderopacity="0.25"
     inkscape:showpageshadow="2"
     inkscape:pageopacity="0.0"
     inkscape:pagecheckerboard="0"
     inkscape:deskcolor="#d1d1d1"
     inkscape:document-units="mm"
     inkscape:zoom="3.2445942"
     inkscape:cx="396.96798"
     inkscape:cy="210.96629"
     inkscape:window-width="3840"
     inkscape:window-height="2054"
     inkscape:window-x="-11"
     inkscape:window-y="-11"
     inkscape:window-maximized="1"
     inkscape:current-layer="svg164" />
  <title
     id="title1">SVG Image created as Power-Train.svg date 2026/03/27 11:34:10 </title>
  <desc
     id="desc1">Image generated by Eeschema-SVG </desc>
  <g
     style="fill:#000000;fill-opacity:1;stroke:#000000;stroke-linecap:round;stroke-linejoin:round;stroke-opacity:1"
     id="g1"
     transform="translate(-62.504928,-40.609856)" />
  <g
     style="fill:#ffffc2;fill-opacity:1;stroke:none"
     id="g2"
     transform="translate(-62.504928,-40.609856)">
    <rect
       x="102.87"
       y="50.799999"
       width="10.16"
       height="7.6199999"
       rx="0.000000"
       id="rect1" />
  </g>
  <g
     style="fill:none;stroke:#840000;stroke-width:0.254;stroke-linecap:round;stroke-linejoin:round;stroke-opacity:1"
     id="g3"
     transform="translate(-62.504928,-40.609856)">
    <rect
       x="102.87"
       y="50.799999"
       width="10.16"
       height="7.6199999"
       rx="0.000000"
       id="rect2" />
  </g>
  <g
     style="fill:none;stroke:#840000;stroke-width:0.1524;stroke-linecap:round;stroke-linejoin:round;stroke-opacity:1"
     id="g4"
     transform="translate(-62.504928,-40.609856)">
    <path
       d="m 102.87,53.34 h -2.54"
       id="path3" />
  </g>
  <g
     style="fill:none;stroke:#006464;stroke-width:0.1524;stroke-linecap:round;stroke-linejoin:round;stroke-opacity:1"
     id="g7"
     transform="translate(-62.504928,-40.609856)">
    <text
       x="103.124"
       y="53.974998"
       textLength="1.8966"
       font-size="1.6933px"
       lengthAdjust="spacingAndGlyphs"
       text-anchor="start"
       opacity="0"
       stroke-opacity="0"
       id="text4">VI</text>
    <g
       class="stroked-text"
       id="g6">
      <desc
         id="desc4">VI</desc>
      <path
         d="m 103.3451,52.6495 0.4233,1.27"
         id="path4" />
      <path
         d="m 103.7684,53.9195 0.4234,-1.27"
         id="path5" />
      <path
         d="m 104.6151,53.9195 v -1.27"
         id="path6" />
    </g>
  </g>
  <g
     style="fill:none;stroke:#840000;stroke-width:0.1524;stroke-linecap:round;stroke-linejoin:round;stroke-opacity:1"
     id="g8"
     transform="translate(-62.504928,-40.609856)">
    <path
       d="m 107.95,58.42 v 2.54"
       id="path7" />
  </g>
  <g
     style="fill:none;stroke:#006464;stroke-width:0.1524;stroke-linecap:round;stroke-linejoin:round;stroke-opacity:1"
     id="g40"
     transform="translate(-62.504928,-40.609856)">
    <g
       transform="rotate(-90,107.95,58.166)"
       id="g9">
      <text
         x="107.95"
         y="58.800999"
         textLength="4.0737"
         font-size="1.6933px"
         lengthAdjust="spacingAndGlyphs"
         text-anchor="start"
         opacity="0"
         stroke-opacity="0"
         id="text8">GND</text>
    </g>
    <g
       class="stroked-text"
       id="g39">
      <desc
         id="desc9">GND</desc>
      <path
         d="m 107.32,57.0981 -0.0605,0.121"
         id="path9" />
      <path
         d="m 107.2595,57.2191 v 0.1814"
         id="path10" />
      <path
         d="m 107.2595,57.4005 0.0605,0.1814"
         id="path11" />
      <path
         d="m 107.32,57.5819 0.121,0.121"
         id="path12" />
      <path
         d="m 107.441,57.7029 0.1209,0.0605"
         id="path13" />
      <path
         d="m 107.5619,57.7634 0.2419,0.0604"
         id="path14" />
      <path
         d="m 107.8038,57.8238 h 0.1814"
         id="path15" />
      <path
         d="m 107.9852,57.8238 0.2419,-0.0604"
         id="path16" />
      <path
         d="m 108.2271,57.7634 0.121,-0.0605"
         id="path17" />
      <path
         d="m 108.3481,57.7029 0.121,-0.121"
         id="path18" />
      <path
         d="m 108.4691,57.5819 0.0604,-0.1814"
         id="path19" />
      <path
         d="M 108.5295,57.4005 V 57.2796"
         id="path20" />
      <path
         d="m 108.5295,57.2796 -0.0604,-0.1815"
         id="path21" />
      <path
         d="m 108.4691,57.0981 -0.0605,-0.0604"
         id="path22" />
      <path
         d="m 108.4086,57.0377 h -0.4234"
         id="path23" />
      <path
         d="m 107.9852,57.0377 v 0.2419"
         id="path24" />
      <path
         d="m 108.5295,56.4934 h -1.27"
         id="path25" />
      <path
         d="m 107.2595,56.4934 1.27,-0.7257"
         id="path26" />
      <path
         d="m 108.5295,55.7677 h -1.27"
         id="path27" />
      <path
         d="m 108.5295,55.1629 h -1.27"
         id="path28" />
      <path
         d="M 107.2595,55.1629 V 54.8605"
         id="path29" />
      <path
         d="M 107.2595,54.8605 107.32,54.6791"
         id="path30" />
      <path
         d="m 107.32,54.6791 0.121,-0.121"
         id="path31" />
      <path
         d="m 107.441,54.5581 0.1209,-0.0605"
         id="path32" />
      <path
         d="m 107.5619,54.4976 0.2419,-0.0604"
         id="path33" />
      <path
         d="m 107.8038,54.4372 h 0.1814"
         id="path34" />
      <path
         d="m 107.9852,54.4372 0.2419,0.0604"
         id="path35" />
      <path
         d="m 108.2271,54.4976 0.121,0.0605"
         id="path36" />
      <path
         d="m 108.3481,54.5581 0.121,0.121"
         id="path37" />
      <path
         d="m 108.4691,54.6791 0.0604,0.1814"
         id="path38" />
      <path
         d="m 108.5295,54.8605 v 0.3024"
         id="path39" />
    </g>
  </g>
  <g
     style="fill:none;stroke:#840000;stroke-width:0.1524;stroke-linecap:round;stroke-linejoin:round;stroke-opacity:1"
     id="g41"
     transform="translate(-62.504928,-40.609856)">
    <path
       d="m 113.03,53.34 h 2.54"
       id="path40" />
  </g>
  <g
     style="fill:none;stroke:#006464;stroke-width:0.1524;stroke-linecap:round;stroke-linejoin:round;stroke-opacity:1"
     id="g70"
     transform="translate(-62.504928,-40.609856)">
    <text
       x="112.776"
       y="53.974998"
       textLength="2.6222999"
       font-size="1.6933px"
       lengthAdjust="spacingAndGlyphs"
       text-anchor="end"
       opacity="0"
       stroke-opacity="0"
       id="text41">VO</text>
    <g
       class="stroked-text"
       id="g58">
      <desc
         id="desc41">VO</desc>
      <path
         d="m 110.3776,52.6495 0.4233,1.27"
         id="path41" />
      <path
         d="m 110.8009,53.9195 0.4234,-1.27"
         id="path42" />
      <path
         d="m 111.8895,52.6495 h 0.2419"
         id="path43" />
      <path
         d="m 112.1314,52.6495 0.121,0.0605"
         id="path44" />
      <path
         d="m 112.2524,52.71 0.1209,0.121"
         id="path45" />
      <path
         d="m 112.3733,52.831 0.0605,0.2419"
         id="path46" />
      <path
         d="m 112.4338,53.0729 v 0.4233"
         id="path47" />
      <path
         d="m 112.4338,53.4962 -0.0605,0.2419"
         id="path48" />
      <path
         d="m 112.3733,53.7381 -0.1209,0.121"
         id="path49" />
      <path
         d="m 112.2524,53.8591 -0.121,0.0604"
         id="path50" />
      <path
         d="m 112.1314,53.9195 h -0.2419"
         id="path51" />
      <path
         d="m 111.8895,53.9195 -0.1209,-0.0604"
         id="path52" />
      <path
         d="m 111.7686,53.8591 -0.121,-0.121"
         id="path53" />
      <path
         d="m 111.6476,53.7381 -0.0604,-0.2419"
         id="path54" />
      <path
         d="M 111.5872,53.4962 V 53.0729"
         id="path55" />
      <path
         d="m 111.5872,53.0729 0.0604,-0.2419"
         id="path56" />
      <path
         d="m 111.6476,52.831 0.121,-0.121"
         id="path57" />
      <path
         d="m 111.7686,52.71 0.1209,-0.0605"
         id="path58" />
    </g>
    <text
       x="107.95"
       y="48.895"
       textLength="1.5337"
       font-size="1.6933px"
       lengthAdjust="spacingAndGlyphs"
       text-anchor="middle"
       opacity="0"
       stroke-opacity="0"
       id="text58">U</text>
    <g
       class="stroked-text"
       id="g67">
      <desc
         id="desc58">U</desc>
      <path
         d="m 107.5871,47.5695 v 1.0281"
         id="path59" />
      <path
         d="m 107.5871,48.5976 0.0605,0.121"
         id="path60" />
      <path
         d="m 107.6476,48.7186 0.0605,0.0605"
         id="path61" />
      <path
         d="m 107.7081,48.7791 0.1209,0.0604"
         id="path62" />
      <path
         d="m 107.829,48.8395 h 0.2419"
         id="path63" />
      <path
         d="m 108.0709,48.8395 0.121,-0.0604"
         id="path64" />
      <path
         d="m 108.1919,48.7791 0.0605,-0.0605"
         id="path65" />
      <path
         d="m 108.2524,48.7186 0.0604,-0.121"
         id="path66" />
      <path
         d="M 108.3128,48.5976 V 47.5695"
         id="path67" />
    </g>
    <path
       style="fill:none;stroke:#840000;stroke-width:0.1524;stroke-linecap:round;stroke-linejoin:round;stroke-opacity:1"
       d="m 122.428,44.45 0.762,-1.27"
       id="path68" />
    <path
       style="fill:none;stroke:#840000;stroke-width:0.1524;stroke-linecap:round;stroke-linejoin:round;stroke-opacity:1"
       d="m 123.19,43.18 0.762,1.27"
       id="path69" />
    <path
       style="fill:none;stroke:#840000;stroke-width:0.1524;stroke-linecap:round;stroke-linejoin:round;stroke-opacity:1"
       d="M 123.19,45.72 V 43.18"
       id="path70" />
  </g>
  <g
     style="fill:none;stroke:#840000;stroke-width:0.1524;stroke-linecap:round;stroke-linejoin:round;stroke-opacity:1"
     id="g71"
     transform="translate(-62.504928,-40.609856)">
    <path
       d="m 123.19,45.72 v 0"
       id="path71" />
  </g>
  <g
     style="fill:none;stroke:#006464;stroke-width:0.1524;stroke-linecap:round;stroke-linejoin:round;stroke-opacity:1"
     id="g101"
     transform="translate(-62.504928,-40.609856)">
    <text
       x="122.936"
       y="42.544998"
       textLength="3.7107999"
       font-size="1.6933px"
       lengthAdjust="spacingAndGlyphs"
       text-anchor="middle"
       opacity="0"
       stroke-opacity="0"
       id="text71">3V3</text>
    <g
       class="stroked-text"
       id="g99">
      <desc
         id="desc71">3V3</desc>
      <path
         d="m 121.3636,41.2195 h 0.7862"
         id="path72" />
      <path
         d="m 122.1498,41.2195 -0.4234,0.4838"
         id="path73" />
      <path
         d="m 121.7264,41.7033 h 0.1815"
         id="path74" />
      <path
         d="m 121.9079,41.7033 0.1209,0.0605"
         id="path75" />
      <path
         d="m 122.0288,41.7638 0.0605,0.0605"
         id="path76" />
      <path
         d="m 122.0893,41.8243 0.0605,0.1209"
         id="path77" />
      <path
         d="m 122.1498,41.9452 v 0.3024"
         id="path78" />
      <path
         d="m 122.1498,42.2476 -0.0605,0.121"
         id="path79" />
      <path
         d="m 122.0893,42.3686 -0.0605,0.0605"
         id="path80" />
      <path
         d="m 122.0288,42.4291 -0.1209,0.0604"
         id="path81" />
      <path
         d="M 121.9079,42.4895 H 121.545"
         id="path82" />
      <path
         d="m 121.545,42.4895 -0.1209,-0.0604"
         id="path83" />
      <path
         d="m 121.4241,42.4291 -0.0605,-0.0605"
         id="path84" />
      <path
         d="m 122.5126,41.2195 0.4233,1.27"
         id="path85" />
      <path
         d="m 122.9359,42.4895 0.4234,-1.27"
         id="path86" />
      <path
         d="m 123.6617,41.2195 h 0.7862"
         id="path87" />
      <path
         d="m 124.4479,41.2195 -0.4234,0.4838"
         id="path88" />
      <path
         d="m 124.0245,41.7033 h 0.1815"
         id="path89" />
      <path
         d="m 124.206,41.7033 0.1209,0.0605"
         id="path90" />
      <path
         d="m 124.3269,41.7638 0.0605,0.0605"
         id="path91" />
      <path
         d="m 124.3874,41.8243 0.0605,0.1209"
         id="path92" />
      <path
         d="m 124.4479,41.9452 v 0.3024"
         id="path93" />
      <path
         d="m 124.4479,42.2476 -0.0605,0.121"
         id="path94" />
      <path
         d="m 124.3874,42.3686 -0.0605,0.0605"
         id="path95" />
      <path
         d="m 124.3269,42.4291 -0.1209,0.0604"
         id="path96" />
      <path
         d="m 124.206,42.4895 h -0.3629"
         id="path97" />
      <path
         d="m 123.8431,42.4895 -0.1209,-0.0604"
         id="path98" />
      <path
         d="m 123.7222,42.4291 -0.0605,-0.0605"
         id="path99" />
    </g>
    <path
       style="fill:none;stroke:#840000;stroke-width:0.3048;stroke-linecap:round;stroke-linejoin:round;stroke-opacity:1"
       d="m 124.714,60.071 h -3.048"
       id="path100" />
    <path
       style="fill:none;stroke:#840000;stroke-width:0.3302;stroke-linecap:round;stroke-linejoin:round;stroke-opacity:1"
       d="m 121.666,59.182 h 3.048"
       id="path101" />
  </g>
  <g
     style="fill:none;stroke:#840000;stroke-width:0.1524;stroke-linecap:round;stroke-linejoin:round;stroke-opacity:1"
     id="g103"
     transform="translate(-62.504928,-40.609856)">
    <path
       d="M 123.19,60.198 V 62.23"
       id="path102" />
    <path
       d="M 123.19,59.182 V 57.15"
       id="path103" />
  </g>
  <g
     style="fill:none;stroke:#006464;stroke-width:0.1524;stroke-linecap:round;stroke-linejoin:round;stroke-opacity:1"
     id="g137"
     transform="translate(-62.504928,-40.609856)">
    <text
       x="127.6385"
       y="58.984901"
       textLength="3.7979"
       font-size="1.6933px"
       lengthAdjust="spacingAndGlyphs"
       text-anchor="middle"
       opacity="0"
       stroke-opacity="0"
       id="text103">C_{blk}</text>
    <g
       class="stroked-text"
       id="g136">
      <desc
         id="desc103">C_{blk}</desc>
      <path
         d="m 126.8946,58.8085 -0.0604,0.0605"
         id="path104" />
      <path
         d="m 126.8342,58.869 -0.1815,0.0604"
         id="path105" />
      <path
         d="m 126.6527,58.9294 h -0.1209"
         id="path106" />
      <path
         d="M 126.5318,58.9294 126.3504,58.869"
         id="path107" />
      <path
         d="m 126.3504,58.869 -0.121,-0.121"
         id="path108" />
      <path
         d="m 126.2294,58.748 -0.0605,-0.121"
         id="path109" />
      <path
         d="m 126.1689,58.627 -0.0604,-0.2419"
         id="path110" />
      <path
         d="M 126.1085,58.3851 V 58.2037"
         id="path111" />
      <path
         d="m 126.1085,58.2037 0.0604,-0.2419"
         id="path112" />
      <path
         d="m 126.1689,57.9618 0.0605,-0.1209"
         id="path113" />
      <path
         d="m 126.2294,57.8409 0.121,-0.121"
         id="path114" />
      <path
         d="m 126.3504,57.7199 0.1814,-0.0605"
         id="path115" />
      <path
         d="m 126.5318,57.6594 h 0.1209"
         id="path116" />
      <path
         d="m 126.6527,57.6594 0.1815,0.0605"
         id="path117" />
      <path
         d="m 126.8342,57.7199 0.0604,0.0605"
         id="path118" />
      <path
         d="m 127.3785,59.0697 v -1.016"
         id="path119" />
      <path
         d="m 127.3785,58.4408 0.0967,-0.0484"
         id="path120" />
      <path
         d="m 127.4752,58.3924 h 0.1935"
         id="path121" />
      <path
         d="m 127.6687,58.3924 0.0968,0.0484"
         id="path122" />
      <path
         d="m 127.7655,58.4408 0.0484,0.0484"
         id="path123" />
      <path
         d="m 127.8139,58.4892 0.0484,0.0967"
         id="path124" />
      <path
         d="m 127.8623,58.5859 v 0.2903"
         id="path125" />
      <path
         d="m 127.8623,58.8762 -0.0484,0.0968"
         id="path126" />
      <path
         d="m 127.8139,58.973 -0.0484,0.0484"
         id="path127" />
      <path
         d="m 127.7655,59.0214 -0.0968,0.0483"
         id="path128" />
      <path
         d="m 127.6687,59.0697 h -0.1935"
         id="path129" />
      <path
         d="m 127.4752,59.0697 -0.0967,-0.0483"
         id="path130" />
      <path
         d="M 128.4428,59.0697 128.346,59.0214"
         id="path131" />
      <path
         d="m 128.346,59.0214 -0.0483,-0.0968"
         id="path132" />
      <path
         d="M 128.2977,58.9246 V 58.0537"
         id="path133" />
      <path
         d="m 128.8299,59.0697 v -1.016"
         id="path134" />
      <path
         d="m 128.9266,58.6827 0.2903,0.387"
         id="path135" />
      <path
         d="m 129.2169,58.3924 -0.387,0.387"
         id="path136" />
    </g>
    <path
       style="fill:none;stroke:#840000;stroke-width:0.1524;stroke-linecap:round;stroke-linejoin:round;stroke-opacity:1"
       d="m 123.19,66.04 v 1.27 h 1.27 l -1.27,1.27 -1.27,-1.27 h 1.27"
       id="path137" />
  </g>
  <g
     style="fill:none;stroke:#840000;stroke-width:0.1524;stroke-linecap:round;stroke-linejoin:round;stroke-opacity:1"
     id="g140"
     transform="translate(-62.504928,-40.609856)">
    <path
       d="m 123.19,66.04 v 0"
       id="path138" />
    <path
       style="fill:none;stroke:#840000;stroke-width:0.1524;stroke-linecap:round;stroke-linejoin:round;stroke-opacity:1"
       d="m 107.95,66.04 v 1.27 h 1.27 l -1.27,1.27 -1.27,-1.27 h 1.27"
       id="path139" />
    <path
       d="m 107.95,66.04 v 0"
       id="path140" />
  </g>
  <g
     style="fill:none;stroke:#0f0f0f;stroke-width:0.1524;stroke-linecap:round;stroke-linejoin:round;stroke-opacity:1"
     id="g158"
     transform="translate(-62.504928,-40.609856)">
    <text
       x="90.169998"
       y="52.9907"
       textLength="2.5013001"
       font-size="1.6933px"
       lengthAdjust="spacingAndGlyphs"
       text-anchor="start"
       opacity="0"
       stroke-opacity="0"
       id="text140">5V</text>
    <g
       class="stroked-text"
       id="g157">
      <desc
         id="desc140">5V</desc>
      <path
         d="M 91.1773,51.5572 H 90.5725"
         id="path141" />
      <path
         d="M 90.5725,51.5572 90.5121,52.162"
         id="path142" />
      <path
         d="m 90.5121,52.162 0.0604,-0.0605"
         id="path143" />
      <path
         d="m 90.5725,52.1015 0.121,-0.0605"
         id="path144" />
      <path
         d="m 90.6935,52.041 h 0.3024"
         id="path145" />
      <path
         d="m 90.9959,52.041 0.1209,0.0605"
         id="path146" />
      <path
         d="m 91.1168,52.1015 0.0605,0.0605"
         id="path147" />
      <path
         d="m 91.1773,52.162 0.0605,0.1209"
         id="path148" />
      <path
         d="m 91.2378,52.2829 v 0.3024"
         id="path149" />
      <path
         d="m 91.2378,52.5853 -0.0605,0.121"
         id="path150" />
      <path
         d="m 91.1773,52.7063 -0.0605,0.0605"
         id="path151" />
      <path
         d="m 91.1168,52.7668 -0.1209,0.0604"
         id="path152" />
      <path
         d="M 90.9959,52.8272 H 90.6935"
         id="path153" />
      <path
         d="m 90.6935,52.8272 -0.121,-0.0604"
         id="path154" />
      <path
         d="M 90.5725,52.7668 90.5121,52.7063"
         id="path155" />
      <path
         d="m 91.6006,51.5572 0.4233,1.27"
         id="path156" />
      <path
         d="m 92.0239,52.8272 0.4234,-1.27"
         id="path157" />
    </g>
  </g>
  <g
     style="fill:none;stroke:#009600;stroke-width:0.1524;stroke-linecap:round;stroke-linejoin:round;stroke-opacity:1"
     id="g163"
     transform="translate(-62.504928,-40.609856)">
    <path
       d="m 115.57,53.34 h 7.62"
       id="path158" />
    <path
       d="m 90.17,53.34 h 10.16"
       id="path159" />
    <path
       d="m 123.19,45.72 v 7.62"
       id="path160" />
    <path
       d="m 123.19,53.34 v 3.81"
       id="path161" />
    <path
       d="m 107.95,60.96 v 5.08"
       id="path162" />
    <path
       d="m 123.19,62.23 v 3.81"
       id="path163" />
  </g>
  <g
     style="fill:#009600;fill-opacity:1;stroke:#009600;stroke-width:0.1524;stroke-linecap:round;stroke-linejoin:round;stroke-opacity:1"
     id="g164"
     transform="translate(-62.504928,-40.609856)">
    <circle
       cx="123.19"
       cy="53.34"
       r="0.45719999"
       id="circle163" />
  </g>
  <metadata
     id="metadata164">
    <rdf:RDF>
      <cc:Work
         rdf:about="">
        <dc:title>SVG Image created as Power-Train.svg date 2026/03/27 11:34:10 </dc:title>
      </cc:Work>
    </rdf:RDF>
  </metadata>
</svg>
